<svg width="48" height="49" viewBox="0 0 48 49" fill="none" xmlns="http://www.w3.org/2000/svg">
<path d="M35 13.5H35.02M14 4.5H34C39.5228 4.5 44 8.97715 44 14.5V34.5C44 40.0228 39.5228 44.5 34 44.5H14C8.47715 44.5 4 40.0228 4 34.5V14.5C4 8.97715 8.47715 4.5 14 4.5ZM32 23.24C32.2468 24.9045 31.9625 26.6044 31.1875 28.098C30.4125 29.5916 29.1863 30.8028 27.6833 31.5593C26.1802 32.3159 24.4769 32.5792 22.8156 32.3119C21.1543 32.0445 19.6195 31.2602 18.4297 30.0703C17.2398 28.8805 16.4555 27.3457 16.1881 25.6844C15.9208 24.0231 16.1841 22.3198 16.9407 20.8167C17.6972 19.3137 18.9084 18.0875 20.402 17.3125C21.8956 16.5375 23.5955 16.2532 25.26 16.5C26.9578 16.7518 28.5297 17.5429 29.7434 18.7566C30.9571 19.9703 31.7482 21.5422 32 23.24Z" stroke="white" stroke-width="4" stroke-linecap="round" stroke-linejoin="round"/>
</svg>
