<svg width="48" height="49" viewBox="0 0 48 49" fill="none" xmlns="http://www.w3.org/2000/svg">
<path d="M32 16.5C35.1826 16.5 38.2348 17.7643 40.4853 20.0147C42.7357 22.2652 44 25.3174 44 28.5V42.5H36V28.5C36 27.4391 35.5786 26.4217 34.8284 25.6716C34.0783 24.9214 33.0609 24.5 32 24.5C30.9391 24.5 29.9217 24.9214 29.1716 25.6716C28.4214 26.4217 28 27.4391 28 28.5V42.5H20V28.5C20 25.3174 21.2643 22.2652 23.5147 20.0147C25.7652 17.7643 28.8174 16.5 32 16.5Z" stroke="white" stroke-width="4" stroke-linecap="round" stroke-linejoin="round"/>
<path d="M12 18.5H4V42.5H12V18.5Z" stroke="white" stroke-width="4" stroke-linecap="round" stroke-linejoin="round"/>
<path d="M8 12.5C10.2091 12.5 12 10.7091 12 8.5C12 6.29086 10.2091 4.5 8 4.5C5.79086 4.5 4 6.29086 4 8.5C4 10.7091 5.79086 12.5 8 12.5Z" stroke="white" stroke-width="4" stroke-linecap="round" stroke-linejoin="round"/>
</svg>
